<?xml version="1.0" encoding="utf-8"?>
<!-- Generator: Adobe Illustrator 23.0.1, SVG Export Plug-In . SVG Version: 6.00 Build 0)  -->
<svg version="1.1" id="Layer_1" xmlns="http://www.w3.org/2000/svg" xmlns:xlink="http://www.w3.org/1999/xlink" x="0px" y="0px"
	 viewBox="0 0 197.3 75.4" style="enable-background:new 0 0 197.3 75.4;" xml:space="preserve">
<style type="text/css">
	.st0{fill-rule:evenodd;clip-rule:evenodd;fill:#FFFFFF;}
	.st1{fill:#FFFFFF;}
</style>
<title>Asset 1</title>
<g>
	
		<image style="overflow:visible;opacity:0.73;" width="800" height="327" xlink:href="CDCD7EF13FC6FA5E.png"  transform="matrix(0.24 0 0 0.24 2.6601 -1.2003)">
	</image>
	<g>
		<g>
			<g id="Layer_1-2_9_">
				<path class="st0" d="M156.6,27.7l-1.8,6.1h3.6c0.4,0,0.6-0.2,0.7-0.6l1.6-5.4c0-0.1,0-0.1-0.1-0.1L156.6,27.7z M161.4,37.9
					c1.5,0.8,2.4,2.1,1.9,4.1l-3.9,13.2h-6.8l3.9-13.3c0.1-0.4,0.1-0.9-0.5-0.9h-3.4l-4.2,14.3h-7l10-34.2h13.8c2.8,0,3.2,2.9,2.6,5
					l-2.7,9.1C164.9,36.7,163,37.4,161.4,37.9L161.4,37.9z"/>
				<path class="st0" d="M48.2,55.1h-7.7v-1l7.6-6L48.2,55.1z M30.8,42.1h9.8v-2.4l7,6.6l-7.1,5.7V49h-13L17.3,70.7H8.7L40.4,5.8
					h7.2l0.4,38.9l-7.5-7l0-16.6L30.8,42.1L30.8,42.1z"/>
				<polygon class="st0" points="58.5,39.2 65.8,20.9 73.4,20.9 59,55.1 51.9,55.1 51.8,20.9 59.1,20.9 58.5,39.2 				"/>
				<polygon class="st0" points="99.1,36.9 103.7,20.9 109.7,20.9 99.7,55.1 93.9,55.1 93.9,38.7 89.1,55.1 82.8,55.1 92.8,20.9 
					99,20.9 99.1,36.9 				"/>
				<path class="st0" d="M79.4,33.8h6.7l-4.2,6.6h-4.4l-2.2,7.5c-0.1,0.3,0,0.4,0.3,0.4h6.2l-2,6.8H69.4c-2.2,0-3.4-1.4-2.8-3.6
					l8.1-27.8c0.4-1.7,2-3,3.7-2.8h11l-2,6.8h-6.2L79.4,33.8z"/>
				<path class="st0" d="M138.2,33.8h6.7l-4.2,6.6h-4.4l-2.2,7.5c-0.1,0.3,0,0.4,0.4,0.4h6.1l-1.9,6.8h-10.5c-2.2,0-3.4-1.4-2.8-3.6
					l8.1-27.8c0.4-1.7,2-3,3.7-2.8h10.9l-2,6.8H140L138.2,33.8z"/>
				<path class="st0" d="M176.4,48.4l1.3-4.6l-8.2-7c-1.1-1.1-0.8-2.1-0.4-3.5l2.8-9.6c0.4-1.7,1.9-2.9,3.7-2.8h10.6
					c2.1,0,2.8,1.8,2.3,3.6l-2,6.8h-5.8l0.8-2.8c0.1-0.4,0.2-0.6-0.3-0.6h-4.2c-0.5,0-0.6,0.2-0.7,0.7l-0.6,2.2
					c-0.2,0.7-0.4,0.9,0.1,1.5l7.5,6.5c1.1,1.1,1.4,1.7,0.9,3.2l-2.7,9.1c-0.5,2.2-2.4,3.8-4.7,3.9h-10.1c-2.2,0-3.4-1.4-2.8-3.6
					l2.2-7.7h6.2l-1.1,3.7c-0.1,0.3-0.2,0.8,0.2,0.8L176.4,48.4z"/>
				<path class="st0" d="M116.7,48.4l3.4-11.8l-0.7-2.2h8L121,56.3l-8.3,2.4l0.9-3.6h-6.9c-2.2,0-3.4-1.4-2.8-3.6l8.1-27.6
					c0.5-1.7,1.6-3,3.4-3h12.1c2.1,0,2.8,1.6,2.3,3.5l-2.1,7.2h-6.2l0.9-3c0.1-0.4,0.1-0.7-0.4-0.7h-3.4c-0.4,0-0.6,0-0.7,0.4
					l-5.6,19.1c-0.1,0.3-0.2,0.8,0.2,0.8L116.7,48.4z"/>
				<path class="st0" d="M30.3,18.1c-6.3,1.7-11.6,5.9-14.7,11.7c-1.4,2.8-2.2,5.8-2.5,8.8c-0.3,3.8,0.2,7.7,1.7,11.2V50l-2.1,4.5
					l-0.3-0.6c-4.3-7.6-4.7-16.8-1-24.7C15.3,21,23,15.1,32,13.7l0.7-0.1l-2.3,4.5L30.3,18.1L30.3,18.1z"/>
				<polygon class="st0" points="23.4,71.6 174.6,71.6 174.6,72.2 23.4,72.2 23.4,71.6 				"/>
				<polygon class="st0" points="28.5,59.6 110.2,59.6 110,60.3 28.5,60.3 28.5,59.6 				"/>
				<polygon class="st0" points="116.3,59.6 176.8,59.6 176.8,60.3 113.8,60.3 116.3,59.6 				"/>
				<path class="st1" d="M32.9,70v-0.4c0.8-0.1,0.8-0.2,0.6-0.7c-0.2-0.5-0.3-1-0.5-1.6h-2.4c-0.1,0.4-0.3,0.9-0.5,1.3
					c-0.3,0.8,0,0.9,1,1V70h-2.9v-0.4c0.8-0.1,1-0.2,1.4-1.2L32,62l0.5-0.1c0.8,2.1,1.6,4.3,2.4,6.4c0.4,1.1,0.5,1.2,1.3,1.3V70
					L32.9,70z M31.8,63.9c-0.4,0.9-0.7,1.9-1,2.8h2L31.8,63.9z"/>
				<path class="st1" d="M44.3,64c-0.2-0.8-0.6-1.6-1.7-1.6c-0.6,0-1.2,0.5-1.2,1.1c0,0,0,0.1,0,0.1c0,0.7,0.5,1.1,1.5,1.7
					c1.3,0.7,2.1,1.3,2.1,2.5c-0.1,1.4-1.3,2.5-2.7,2.4c-0.1,0-0.1,0-0.2,0c-0.7,0-1.4-0.1-2-0.4c-0.1-0.3-0.3-1.4-0.4-2l0.4-0.1
					c0.2,0.8,0.9,2,2.1,2c0.7,0.1,1.2-0.4,1.3-1c0-0.1,0-0.2,0-0.2c0-0.8-0.5-1.2-1.5-1.8c-1.2-0.7-2-1.3-2-2.5c0-1.2,1-2.2,2.7-2.2
					c0.6,0,1.1,0.1,1.7,0.2c0,0.5,0.1,1,0.2,1.8L44.3,64z"/>
				<path class="st1" d="M53.5,64c-0.2-0.8-0.6-1.6-1.7-1.6c-0.6,0-1.2,0.5-1.2,1.1c0,0,0,0.1,0,0.1c0,0.7,0.5,1.1,1.5,1.7
					c1.3,0.7,2.1,1.3,2.1,2.5c-0.1,1.4-1.2,2.5-2.6,2.4c-0.1,0-0.1,0-0.2,0c-0.7,0-1.4-0.1-2-0.4c-0.1-0.3-0.3-1.4-0.3-2l0.4-0.1
					c0.2,0.8,0.9,2,2.1,2c0.7,0,1.2-0.5,1.3-1.1c0-0.1,0-0.1,0-0.2c0-0.8-0.5-1.2-1.5-1.8c-1.2-0.7-2-1.3-2-2.5c0-1.2,1-2.2,2.7-2.2
					c0.6,0,1.1,0.1,1.7,0.2c0,0.5,0.1,1,0.2,1.8L53.5,64z"/>
				<path class="st1" d="M64.7,68c-0.1,0.3-0.4,1.7-0.5,2h-6.1v-0.4c1.1-0.1,1.2-0.2,1.2-1.2v-4.7c0-1-0.1-1.1-1-1.2v-0.4h3.8
					c1.2,0,1.7,0,1.8,0c0,0.2,0.1,1.2,0.1,1.9l-0.4,0.1c-0.1-0.4-0.2-0.7-0.5-1.1c-0.2-0.3-0.4-0.4-1.1-0.4h-0.9
					c-0.4,0-0.5,0-0.5,0.4v2.6h1.2c0.8,0,0.8-0.2,1-1h0.4v2.6h-0.4c-0.2-0.9-0.3-1-1-1h-1.3v2.2c0,0.8,0.1,1,0.8,1.1h1
					c0.7,0,0.8-0.1,1.1-0.4c0.3-0.4,0.6-0.8,0.7-1.2L64.7,68z"/>
				<path class="st1" d="M75,70v-0.4c0.9-0.1,1-0.2,1-1.3v-4.8c-0.9,2.1-2.1,4.9-2.8,6.6h-0.4c-0.7-1.7-1.7-4.3-2.6-6.5
					c-0.2,4-0.2,4.8-0.2,5.2c0,0.7,0.3,0.8,1.2,0.9V70h-2.9v-0.4c0.7-0.1,1-0.2,1.1-0.9c0-0.4,0.1-1,0.4-5.2c0-0.6-0.1-0.9-1.1-1V62
					h2.4l2.4,5.7l2.5-5.7h2.4v0.4c-1,0.1-1.1,0.2-1.1,1.1l0.1,4.6c0,1.2,0.1,1.2,1.1,1.3V70L75,70z"/>
				<path class="st1" d="M87,65.6c1.2,0.2,2.1,0.8,2.1,2c0,0.8-0.5,1.5-1.2,1.9c-0.7,0.4-1.4,0.5-2.2,0.5h-3.2v-0.4
					c1-0.1,1-0.2,1-1.2v-4.8c0-1-0.1-1.1-1-1.2v-0.4H86c0.7-0.1,1.3,0.1,1.9,0.4c0.5,0.3,0.7,0.8,0.7,1.3
					C88.6,64.7,87.9,65.5,87,65.6z M85.5,65.5c1.2,0,1.7-0.5,1.7-1.4c0.1-0.7-0.5-1.4-1.2-1.5c-0.1,0-0.2,0-0.2,0
					c-0.2,0-0.4,0-0.6,0.1C85,62.7,85,62.9,85,63.2v2.3H85.5z M85,68.4c0,0.9,0.3,1.1,1,1.1c0.9,0,1.5-0.8,1.5-1.6c0,0,0-0.1,0-0.1
					c0-1.2-0.7-1.8-2.1-1.8H85L85,68.4z"/>
				<path class="st1" d="M99.4,67.9c-0.1,0.5-0.4,1.8-0.6,2.1H93v-0.4c1.1-0.1,1.2-0.2,1.2-1.2v-4.7c0-1-0.1-1.1-1-1.2v-0.4h3.5v0.4
					c-0.9,0.1-1.1,0.2-1.1,1.2v4.8c0,0.7,0,1,0.7,1h0.7c0.4,0.1,0.9-0.1,1.1-0.4c0.3-0.4,0.6-0.8,0.8-1.3L99.4,67.9z"/>
				<path class="st1" d="M109.5,68c-0.1,0.3-0.4,1.7-0.5,2h-6.1v-0.4c1.1-0.1,1.2-0.2,1.2-1.2v-4.7c0-1-0.1-1.1-1-1.2v-0.4h3.8
					c1.2,0,1.7,0,1.8,0c0,0.2,0.1,1.2,0.1,1.9l-0.4,0.1c-0.1-0.4-0.2-0.7-0.5-1.1c-0.2-0.3-0.4-0.4-1.1-0.4H106
					c-0.4,0-0.5,0-0.5,0.4v2.6h1.2c0.8,0,0.8-0.2,1-1h0.4v2.6h-0.4c-0.2-0.9-0.3-1-1-1h-1.2v2.2c0,0.8,0.1,1,0.8,1.1h1
					c0.7,0,0.8-0.1,1.1-0.4c0.3-0.4,0.5-0.8,0.7-1.2L109.5,68z"/>
				<path class="st1" d="M130,62.5c-0.8,0.1-1,0.3-1.3,1.3c-0.3,1-1.3,4-2,6.4h-0.6c-0.6-1.8-1.3-3.8-2-5.6
					c-0.7,1.9-1.3,3.8-1.9,5.6h-0.6c-0.5-1.9-1.3-4.3-1.9-6.5c-0.3-1-0.5-1.1-1.2-1.2v-0.4h3.4v0.4c-0.9,0.1-0.9,0.3-0.8,0.9
					c0.4,1.5,0.9,3,1.3,4.5c0.6-1.8,1.2-3.7,1.8-5.7h0.6c0.7,1.9,1.3,3.8,2,5.7c0.5-1.4,1.1-3.5,1.3-4.3c0.2-0.8,0.1-0.9-1-1v-0.4
					h2.9L130,62.5z"/>
				<path class="st1" d="M137.5,61.9c2.2,0,4,1.7,4,3.8c0,0.1,0,0.1,0,0.2c0.1,2.2-1.6,4.2-3.8,4.3c-2.2,0.1-4.2-1.6-4.3-3.8
					c0-0.1,0-0.3,0-0.4c-0.1-2.2,1.7-4.1,3.9-4.1C137.4,61.9,137.4,61.9,137.5,61.9z M137.3,62.4c-1.3,0-2.3,1.2-2.3,3.4
					c0,2.2,1,3.9,2.6,3.9c1.2,0,2.2-1.1,2.2-3.4C139.9,63.8,138.8,62.4,137.3,62.4z"/>
				<path class="st1" d="M153.1,70.1h-0.4c-1.3-0.1-1.8-0.4-2.2-1c-0.4-0.6-0.8-1.4-1.2-2.1c-0.2-0.3-0.4-0.4-0.8-0.4h-0.3v1.8
					c0,1,0.1,1.1,1,1.2V70h-3.5v-0.4c0.9-0.1,1-0.2,1-1.2v-4.7c0-1-0.1-1.1-1-1.2v-0.4h3.3c0.7-0.1,1.5,0.1,2.1,0.5
					c0.5,0.4,0.8,1,0.8,1.6c0,0.9-0.6,1.7-1.5,2c0.2,0.4,0.7,1.2,1,1.7c0.3,0.4,0.6,0.9,0.9,1.3c0.2,0.3,0.5,0.5,0.8,0.6L153.1,70.1
					z M148.5,66.1c0.4,0,0.9-0.1,1.2-0.3c0.4-0.4,0.6-0.9,0.6-1.5c0-1.3-0.8-1.8-1.5-1.8c-0.2,0-0.4,0-0.6,0.1
					c-0.1,0.1-0.1,0.2-0.1,0.5v2.9L148.5,66.1z"/>
				<path class="st1" d="M160.2,62.1c1.3-0.1,2.5,0.3,3.5,1.1c0.7,0.7,1,1.7,1,2.6c0,1.3-0.5,2.4-1.5,3.2c-1,0.7-2.2,1.1-3.5,1h-3.1
					v-0.4c1-0.1,1-0.2,1-1.2v-4.7c0-1-0.1-1.1-1-1.2v-0.4H160.2z M159.1,68.3c0,0.9,0.3,1.2,1.1,1.2c1.8,0,2.8-1.3,2.8-3.5
					c0.1-1-0.3-2-1-2.8c-0.6-0.4-1.3-0.7-2-0.6c-0.3,0-0.6,0-0.8,0.2c-0.1,0.1-0.1,0.3-0.1,0.7L159.1,68.3z"/>
				<path class="st1" d="M173.2,64c-0.2-0.8-0.6-1.6-1.7-1.6c-0.6,0-1.2,0.5-1.2,1.1c0,0,0,0.1,0,0.1c0,0.7,0.5,1.1,1.5,1.7
					c1.3,0.7,2.1,1.3,2.1,2.5c-0.1,1.4-1.2,2.5-2.6,2.4c-0.1,0-0.1,0-0.2,0c-0.7,0-1.4-0.1-2-0.4c-0.1-0.3-0.3-1.4-0.3-2l0.4-0.1
					c0.2,0.8,0.9,2,2.1,2c0.7,0,1.2-0.5,1.3-1.1c0-0.1,0-0.1,0-0.2c0-0.8-0.5-1.2-1.5-1.8c-1.2-0.7-2-1.3-2-2.5c0-1.2,1-2.2,2.7-2.2
					c0.6,0,1.1,0.1,1.7,0.2c0.1,0.5,0.1,1,0.2,1.8L173.2,64z"/>
			</g>
		</g>
	</g>
</g>
</svg>
